PathFileType  4	(X/Y/Z) C:\Users\antoi\Documents\MyRepositories\mobilecap\ResultsAnalysis
DataRate	CameraRate	NumFrames	NumMarkers	Units	OrigDataRate	OrigDataStartFrame	OrigNumFrames
100.0	100.0	4	51	mm	100.0	786	1257
Frame#	Time	r_knee			r_shank_antsup			r_ankle			r_calc			r_5meta			r_toe			L_knee			L_shank_antsup			L_ankle			L_calc			L_5meta			L_toe			r_sh2			r_sh3			r_sh4			L_sh2			L_sh3			r_thigh1			r_thigh2			r_thigh3			r_thigh4			r_thigh5			L_thigh1			L_thigh2			L_thigh3			L_thigh4			r.ASIS			r.PSIS			L.ASIS			L.PSIS			C7			R_Shoulder			L_Shoulder			R_Sternum			L_Sternum			R_humerus			R_elbow_med			R_elbow_lat			R_forearm			R_wrist_radius			R_wrist_ulna			L_humerus			L_elbow_med			L_elbow_lat			L_forearm			L_wrist_radius			L_wrist_ulna			R_HJC			L_HJC			R_HJC_reg			L_HJC_reg			
		X1	Y1	Z1	X2	Y2	Z2	X3	Y3	Z3	X4	Y4	Z4	X5	Y5	Z5	X6	Y6	Z6	X7	Y7	Z7	X8	Y8	Z8	X9	Y9	Z9	X10	Y10	Z10	X11	Y11	Z11	X12	Y12	Z12	X13	Y13	Z13	X14	Y14	Z14	X15	Y15	Z15	X16	Y16	Z16	X17	Y17	Z17	X18	Y18	Z18	X19	Y19	Z19	X20	Y20	Z20	X21	Y21	Z21	X22	Y22	Z22	X23	Y23	Z23	X24	Y24	Z24	X25	Y25	Z25	X26	Y26	Z26	X27	Y27	Z27	X28	Y28	Z28	X29	Y29	Z29	X30	Y30	Z30	X31	Y31	Z31	X32	Y32	Z32	X33	Y33	Z33	X34	Y34	Z34	X35	Y35	Z35	X36	Y36	Z36	X37	Y37	Z37	X38	Y38	Z38	X39	Y39	Z39	X40	Y40	Z40	X41	Y41	Z41	X42	Y42	Z42	X43	Y43	Z43	X44	Y44	Z44	X45	Y45	Z45	X46	Y46	Z46	X47	Y47	Z47	X48	Y48	Z48	X49	Y49	Z49	X50	Y50	Z50	X51	Y51	Z51	

786	7.85000000	-183.67035	453.76354	-396.01390	-176.20994	379.56754	-376.05951	-266.18620	90.14454	-419.26084	-336.37620	54.63065	-459.54958	-167.65201	46.54098	-389.06934	-122.95800	66.91590	-443.07039	-215.65675	478.64784	-792.67172	-188.52878	417.12170	-820.51129	-260.76455	112.09617	-865.50583	-328.33502	76.75269	-814.32966	-178.89592	45.25453	-906.30153	-121.03038	62.11569	-858.70243	-198.67340	268.05916	-377.11564	-250.25091	392.77932	-378.64979	-280.13612	280.83671	-381.54705	-276.18401	435.90263	-814.63248	-290.75342	318.38118	-846.07440	-213.48690	762.66692	-385.78830	-170.06403	658.80028	-385.00756	-200.35329	621.17935	-338.42479	-290.07501	732.16850	-307.75282	-256.20975	621.49901	-327.85224	-254.63405	749.42481	-707.94003	-206.47436	629.03006	-756.56709	-364.43115	708.31284	-707.74615	-306.16070	587.24142	-754.97365	-233.82705	864.17786	-378.21094	-403.89514	931.20002	-450.06737	-240.35945	850.95888	-632.09967	-409.61568	920.19376	-557.44667	-222.74874	1331.55136	-432.29938	-164.65384	1248.66649	-292.11942	-144.63964	1308.87263	-596.75247	-108.84266	1239.81431	-421.61923	-103.90565	1248.05231	-462.90823	-148.91760	1043.36792	-170.16977	-173.47394	922.88733	-194.62184	-153.35260	968.98412	-130.42948	-56.37663	1002.54333	-184.46744	32.50553	1028.40032	-252.49079	49.84380	989.06337	-241.55184	-117.90036	1186.83757	-662.22757	-190.98175	970.65259	-665.64181	-169.96320	992.57064	-732.06589	-59.45677	991.04507	-695.54641	39.80427	970.71291	-630.04129	49.76470	941.09770	-651.05975	-318.14984	809.80789	-399.97414	-319.46773	800.15457	-600.02944	-316.71776	809.79420	-404.18556	-325.60011	792.70326	-570.92580	
787	7.86000000	-181.67351	453.01740	-395.27693	-173.99370	378.88553	-375.16555	-266.27730	90.03299	-418.96461	-336.43328	54.56016	-459.52256	-167.65185	46.55414	-389.07444	-122.89214	66.91524	-443.26504	-214.29323	480.24580	-793.74438	-186.62402	418.54961	-821.62371	-259.42362	113.57886	-865.24892	-327.29851	79.44077	-813.55435	-178.58516	45.61987	-906.15885	-120.29848	61.61926	-858.59131	-197.29463	267.39040	-376.66832	-248.04008	392.41369	-377.93527	-278.44219	280.58928	-380.71550	-274.22997	437.47632	-815.70290	-288.88787	320.12748	-846.86465	-216.12155	761.50299	-383.80161	-171.22896	657.87285	-383.82694	-201.30868	619.94218	-336.75937	-293.01722	729.30233	-306.70115	-257.30129	619.13085	-326.89349	-258.21153	749.80320	-707.27864	-207.83886	630.72432	-756.68281	-367.13497	706.63960	-706.68490	-306.73745	586.85690	-754.77471	-236.98566	860.37985	-377.24230	-406.85100	929.03574	-447.98958	-244.53477	848.02019	-630.95130	-412.95547	918.27108	-555.18348	-219.26001	1327.17910	-430.96814	-161.03800	1243.55162	-291.17310	-142.35180	1302.98654	-595.71986	-106.39347	1233.84519	-420.88403	-101.71261	1242.00703	-462.10923	-145.66704	1038.37185	-169.19952	-170.51809	917.94826	-193.69770	-150.15973	963.97958	-129.57753	-53.17948	997.44840	-183.71929	35.65306	1023.09045	-251.86395	52.98547	983.68132	-240.90826	-115.98365	1181.14196	-661.01577	-188.46232	964.84499	-665.49455	-167.24533	987.00305	-731.53774	-56.84840	985.79970	-694.74915	42.24261	965.49653	-629.18514	52.47448	936.16571	-650.44793	-321.74522	806.73781	-398.63888	-323.99021	797.74119	-598.71648	-320.46906	806.96036	-403.04814	-329.95740	790.22835	-569.66180	
788	7.87000000	-179.61000	452.26051	-394.33799	-172.01018	377.98871	-374.51631	-266.28157	89.90012	-418.79966	-336.48142	54.48173	-459.45657	-167.60757	46.61141	-389.10707	-123.01911	66.86568	-443.41636	-213.20442	481.74772	-794.68727	-184.99613	420.00486	-822.89652	-258.01028	115.11729	-865.35588	-326.07971	81.87776	-812.87876	-178.21354	45.91793	-905.90268	-119.50100	61.20887	-858.67187	-196.10871	266.63991	-376.12581	-245.90215	391.92156	-377.39293	-276.88547	280.65670	-379.89571	-272.56857	438.93752	-816.59815	-287.22785	321.66398	-847.52935	-219.04321	760.23072	-381.82767	-172.52379	657.00348	-382.43118	-202.32622	618.54812	-335.33919	-295.92960	726.28836	-305.57107	-258.35428	616.81279	-325.81934	-261.71413	750.30961	-707.01123	-209.20146	632.31352	-756.85937	-369.66578	705.08030	-705.94434	-307.38309	586.59204	-754.90243	-240.05804	856.37982	-376.16161	-409.71072	926.78515	-446.07960	-248.45510	845.39004	-629.83521	-416.21356	916.26262	-553.07761	-215.83834	1322.61667	-429.60131	-157.43491	1238.36759	-290.16400	-140.17286	1296.97591	-594.73718	-104.25246	1227.61217	-420.32234	-99.65614	1235.83856	-461.39665	-142.46609	1033.29612	-168.45097	-167.48486	912.95268	-192.95256	-146.96090	958.83569	-128.76409	-49.94729	992.14331	-182.99422	38.91253	1017.66200	-251.26887	56.14612	978.26769	-240.18121	-114.01894	1175.37706	-659.77402	-185.81446	958.98838	-665.54909	-164.41124	981.41018	-731.14109	-54.15206	980.46530	-694.01461	44.81624	960.19547	-628.33108	55.22866	930.94871	-649.67495	-325.26033	803.50136	-397.48595	-328.20617	795.46584	-597.59536	-324.09543	804.22541	-401.81408	-334.21901	787.84555	-568.37781	
789	7.88000000	-177.77492	451.35836	-393.44257	-170.34309	376.76849	-374.26625	-266.23411	89.80921	-418.70102	-336.53185	54.40675	-459.35576	-167.60874	46.60048	-389.09320	-123.29635	66.75385	-443.43972	-212.28033	483.19861	-795.72085	-183.66377	421.34415	-824.15300	-256.75848	116.44485	-865.00414	-324.76770	84.11124	-812.17439	-177.80009	46.30493	-905.69658	-118.69127	60.97443	-858.87786	-195.02765	265.81490	-375.52912	-243.89687	391.43321	-376.78755	-275.62036	280.74998	-379.42025	-271.25553	440.27522	-817.33245	-285.97464	322.85516	-847.76197	-222.14838	758.66054	-380.22236	-174.01639	656.32635	-380.48749	-203.29598	617.04756	-333.95487	-298.81047	723.15647	-304.47305	-259.28033	614.59384	-324.54475	-265.00455	750.78033	-706.77206	-210.53578	633.75482	-757.09408	-372.04412	703.57709	-705.44331	-307.98461	586.54604	-755.50821	-243.06925	852.14096	-375.04149	-412.45346	924.42776	-444.44924	-252.08632	842.98963	-628.82389	-419.26518	914.26589	-551.27372	-212.60501	1317.85328	-428.23750	-153.93542	1233.14872	-289.06013	-138.12318	1290.80172	-593.67344	-102.22024	1221.21655	-419.79057	-97.59494	1229.58769	-460.67802	-139.31563	1028.07278	-167.87016	-164.27292	907.75582	-192.44454	-143.72403	953.53150	-128.10872	-46.72864	986.66801	-182.30998	42.23064	1012.17982	-250.56968	59.36718	972.92143	-239.49065	-111.97060	1169.54852	-658.49819	-182.63176	952.88067	-665.23981	-161.50278	975.81355	-730.87089	-51.38856	975.07838	-693.43024	47.50727	954.91373	-627.56963	58.06575	925.57581	-648.94684	-328.74671	800.08800	-396.61705	-332.09909	793.31910	-596.76630	-327.65919	801.38052	-400.68071	-338.28406	785.53037	-567.30330	
